<?xml version="1.0" standalone="no"?>
<!DOCTYPE svg PUBLIC "-//W3C//DTD SVG 1.1//EN" "http://www.w3.org/Graphics/SVG/1.1/DTD/svg11.dtd" >
<!--
2013-9-30: Created.
-->
<svg>
<metadata>
Created by iconfont
</metadata>
<defs>

<font id="iconfont" horiz-adv-x="1024" >
  <font-face
    font-family="iconfont"
    font-weight="500"
    font-stretch="normal"
    units-per-em="1024"
    ascent="896"
    descent="-128"
  />
    <missing-glyph />
    
    <glyph glyph-name="gouwuche" unicode="&#58982;" d="M573.919235 275.492704c-89.703021 0-179.406043 0.001023-269.109064-0.001023-6.29845 0-7.845689-1.972934-6.613628-8.178263 2.780323-14.009062 5.284353-28.077475 8.340969-42.026162 2.117221-9.660011 8.622378-16.384156 16.510022-21.890566 7.913227-5.523807 17.101493-6.707772 26.27441-6.845918 21.99392-0.331551 43.99705-0.103354 65.99711-0.100284 154.848741 0.021489 309.697481 0.039909 464.546222 0.071631 11.831466 0.002047 20.957311-8.883321 19.47147-20.904099-0.892323-7.219425-6.339382-13.71435-14.19121-15.509229-3.457752-0.791016-7.080256-1.204431-10.628058-1.205455-177.701215-0.059352-355.402429-0.257873-533.101597 0.188288-23.163559 0.058328-42.410925 10.94426-57.384965 29.034267-11.470239 13.857613-15.289218 30.486338-18.22099 47.50392-2.223644 12.907984-4.131087 25.871227-6.331195 38.783305-2.62785 15.427364-5.371334 30.836309-8.151657 46.237067-2.236947 12.394285-4.691859 24.749684-6.887874 37.150108-2.37407 13.402241-4.470825 26.853601-6.851035 40.253796-2.737344 15.409968-5.694699 30.780027-8.481162 46.180785-3.211135 17.746176-6.417153 35.493375-9.478885 53.266158-2.225691 12.916171-4.078899 25.897833-6.347568 38.805818-2.296299 13.062504-5.034666 26.047236-7.329942 39.10974-2.445702 13.919011-4.483104 27.90863-6.91755 41.829687-2.137687 12.223393-4.691859 24.373107-6.854105 36.592406-2.373047 13.409404-4.170996 26.928303-6.860245 40.271192-1.896186 9.407254-2.321882 19.336394-7.828292 27.745924-7.408737 11.31572-17.353227 18.756179-31.335682 18.937305-19.267832 0.249687-38.540781 0.020466-57.811684 0.063445-11.090593 0.024559-18.394952 5.788843-20.61962 16.090467-2.188852 10.131755 5.344728 20.679995 15.677051 20.807908 23.527856 0.292666 47.072085 0.445138 70.590731-0.11768 14.080693-0.336668 26.015513-7.048533 37.055964-15.454994 12.907984-9.828856 21.50478-22.849404 26.133194-38.004569 3.309372-10.836813 4.266164-22.38687 6.363941-33.601282 1.436722-7.68196 2.753717-15.408945 4.753257-22.948665 0.49528-1.868557 3.247974-3.984754 5.29254-4.411473 3.603061-0.751107 7.458879-0.329505 11.209296-0.330528 207.544917-0.00614 415.089833 0.024559 622.635773-0.098237 9.995655-0.00614 20.207227-0.316202 29.92966-2.347464 12.165064-2.540869 23.433712-7.961322 33.015951-16.310477 16.293081-14.195304 25.593911-31.882128 26.832112-53.581336 0.754177-13.214976-2.945075-25.87839-5.094018-38.72293-4.045129-24.166399-8.179286-48.317449-12.408611-72.452125-3.699252-21.110807-7.66968-42.174542-11.348466-63.289442-2.601244-14.926968-4.798283-29.924543-7.391341-44.852534-2.300392-13.239536-4.54348-26.5067-7.458879-39.618323-3.323699-14.945387-11.600199-27.28646-23.346731-36.768415-7.169283-5.786797-15.274892-10.942213-23.765263-14.404058-7.554046-3.080152-16.213263-4.765537-24.393573-4.795213-89.361237-0.325411-178.723497-0.203638-268.085758-0.203638C573.919235 275.459958 573.919235 275.476331 573.919235 275.492704zM564.901861 624.278435c-105.910145 0-211.82029 0-317.730435-0.001023-1.87572 0-3.751441-0.024559-5.628184-0.023536-3.697205 0.00307-5.40408-1.817392-4.808516-5.484921 1.962701-12.095479 3.855818-24.204262 6.025227-36.263925 2.408863-13.389962 5.248537-26.702152 7.610328-40.099277 2.27481-12.906961 3.981684-25.915229 6.30152-38.814004 2.257413-12.549827 5.170766-24.981974 7.440459-37.530778 2.936889-16.234753 5.491061-32.53909 8.264221-48.803519 2.744507-16.099676 5.555529-32.187073 8.337899-48.28061 2.667759-15.431457 5.492084-30.837332 7.941879-46.303582 1.234107-7.794523 2.931772-9.645684 10.81737-9.645684 177.198771 0.00921 354.398566-0.010233 531.597337 0.138146 7.059789 0.00614 14.34573 0.780783 21.13025 2.642177 12.679787 3.477194 21.259186 12.157901 24.696472 24.809035 2.53166 9.320273 3.547803 19.049868 5.28947 28.589129 2.838651 15.553231 5.722328 31.098275 8.580422 46.648436 2.185782 11.894911 4.352121 23.792892 6.541997 35.68678 2.310625 12.550851 4.78191 25.074072 6.919597 37.654598 2.193968 12.919241 3.945869 25.913183 6.114255 38.836517 2.842745 16.940834 5.879917 33.849946 8.875135 50.765197 4.362354 24.63405-15.241123 45.802162-39.655162 45.688575C774.676561 623.997026 669.788699 624.277412 564.901861 624.278435zM803.851021-33.902902c-42.86732-1.613754-76.977185 34.586726-77.236082 74.823126-0.292666 45.585221 34.111912 78.42414 76.779687 78.381162 42.681078-0.042979 75.955926-32.05609 76.866668-75.874061C881.148501 0.770805 846.716294-34.732803 803.851021-33.902902zM803.327088 3.212414c20.723997-0.876973 39.959084 18.780739 39.34817 39.430034-0.621147 20.97573-16.338107 38.645159-39.364543 38.617529-22.307052-0.026606-39.042201-18.183128-39.243793-38.222533C763.842819 20.783605 781.243117 3.485637 803.327088 3.212414zM395.723763-33.903925c-41.419342-1.528819-77.243245 34.916231-76.238358 77.859275 0.9967 42.600237 35.116799 75.795267 77.199243 75.346035 42.469254-0.453325 75.885318-32.715099 76.212776-76.53614C473.210555 0.665405 440.171068-34.880159 395.723763-33.903925zM395.96424 81.162764c-19.262716 1.476631-39.847543-17.379832-39.041178-40.158628 0.729617-20.603247 17.882276-37.216623 39.005362-37.939077 19.221784-0.657986 39.906895 17.720593 39.030945 40.839127C434.273754 61.991122 418.188404 82.369242 395.96424 81.162764zM842.675258 42.641425c0.610914-20.649296-18.624173-40.305985-39.34817-39.430034-22.083971 0.273223-39.48427 17.571191-39.260166 39.825031"  horiz-adv-x="1024" />

    
    <glyph glyph-name="zimuf" unicode="&#58936;" d="M293.418833 896l437.162333 0 0-138.048151L440.098689 757.951849l0-310.603414 253.078424 0 0-138.048151L440.098689 309.300283l0-437.142626L293.418833-127.842343 293.418833 896z"  horiz-adv-x="1024" />

    
    <glyph glyph-name="liwu" unicode="&#58883;" d="M1139.110888 539.810348c0 49.135952-40.301961 89.082913-90.077912 89.082913h-70.001932c29.271971 28.196972 47.498954 67.579934 47.498954 111.297891C1026.530998 826.214068 955.964066 896 868.945151 896c-88.587913 0-146.339857-86.947915-181.159823-168.977835-18.655982 8.115992-41.511959 13.169987-66.507935 13.169987-24.925976 0-47.781953-4.982995-66.509935-13.169987C519.942492 809.052085 462.189549 896 373.607635 896 299.834707 896 238.379767 845.654049 221.221784 778.003115c14.309986-2.917997 28.837972-6.762993 43.576957-11.462989 11.891988 48.852952 56.186945 85.383917 109.167894 85.383917 64.797937 0 113.07989-76.554925 143.840859-152.250851-4.911995-6.834993-7.475993-14.169986-8.329992-21.933979 2.419998 0.43 4.699995 0.858999 6.694994 1.499999-2.923997-0.929999-4.845995-2.139998-7.051993-3.417997-0.07-0.857999-0.43-1.569998-0.43-2.492998 0-14.315986 8.193992-27.343973 21.291979-38.170962-0.212-0.071-0.283-0.212-0.494999-0.283-29.266971-9.115991-86.022916-7.833992-189.986815 48.994952C108.213894 810.405084 6.169994 688.779202 5.025995 687.497204c-7.834992-9.539991-6.333994-23.566977 3.276997-31.26097 9.615991-7.692992 23.783977-6.333994 31.689969 3.276997 0.851999 1.069999 78.970923 94.139908 277.645729-14.526986 71.48993-39.166962 132.235871-58.746943 181.229823-58.746942 9.89899 0 19.226981 1.135999 28.124972 2.635997 0.712999-1.499999 1.712998-3.063997 2.422998-4.487996h69.356932V406.290478H148.441855v133.58987c0 24.637976 20.15198 44.505957 45.077956 44.505956h149.467854c-15.238985 7.051993-30.83097 14.667986-46.928954 23.496977a476.973534 476.973534 0 0 1-43.864957 21.07998H193.519811c-49.775951 0-90.082912-39.948961-90.082912-89.083913v-178.094826h67.579934V-38.909087c0-49.211952 40.305961-89.088913 90.080912-89.088913h720.497296c49.775951 0 90.082912 39.876961 90.082912 89.088913v400.479609h67.790934l-0.357999 178.239826zM598.844415-83.492043H261.097745c-24.854976 0-45.004956 19.867981-45.004956 44.506956V361.717522h382.751626v-445.209565z m135.013868 756.81926c0 9.399991-3.275997 18.299982-9.111991 26.345975 30.76097 75.695926 78.971923 152.249851 143.84086 152.249851 62.096939 0 112.58489-49.922951 112.58489-111.302891 0-61.30994-50.487951-111.297891-112.58489-111.297892H705.301311c17.592983 11.745989 28.556972 27.126974 28.556972 44.005957z m-112.58089-22.218978c-9.045991 0-17.732983 0.640999-25.707975 1.709998-2.134998 3.847996-5.052995 7.264993-9.327991 9.328991-7.045993 3.487997-14.809986 2.493998-21.151979-1.139999-7.116993 3.563997-11.321989 7.762992-11.321989 12.319988 0 12.315988 30.26697 22.285978 67.509934 22.285979 37.312964 0 67.579934-10.03999 67.579934-22.284979 0-12.249988-30.26697-22.219978-67.579934-22.219978z m405.253605-690.093326c0-24.638976-20.14998-44.506957-45.004957-44.506956H643.779371v445.209565h382.750627v-400.702609z m67.649933 445.207565h-450.32956V584.316304h405.253604c24.920976 0 45.076956-19.867981 45.076956-44.505956v-133.58787z m0 0"  horiz-adv-x="1139" />

    
    <glyph glyph-name="chongzhi" unicode="&#58891;" d="M1092.943 107.239l-88.039 79.61c-8.43 7.492-8.43 22.478-0.937 29.97 7.493 8.43 22.479 8.43 29.971 0.937l59.005-54.322 59.005 54.322c8.43 7.493 22.478 7.493 29.97-0.936 7.493-8.43 7.493-22.479-0.936-29.971l-88.039-79.61z m0 0M1166.933 109.112h-145.17c-11.24 0-20.605 8.43-20.605 20.605 0 11.24 8.429 20.605 20.605 20.605h145.17c11.24 0 20.605-8.43 20.605-20.605 0-11.239-8.43-20.605-20.605-20.605z m0-58.068h-145.17c-11.24 0-20.605 8.43-20.605 20.605 0 11.239 8.429 20.605 20.605 20.605h145.17c11.24 0 20.605-8.43 20.605-20.605 1.873-12.176-8.43-20.605-20.605-20.605z m0 0M1095.753-31.376c-11.24 0-20.605 8.43-20.605 20.605V125.971c0 11.239 8.43 20.605 20.605 20.605 11.239 0 20.605-8.43 20.605-20.605v-136.742c0-10.302-9.366-20.605-20.605-20.605z m206.049 595.669H118.894v150.79c0 71.18 58.069 130.185 130.186 130.185h922.536c72.117 0 130.186-59.005 130.186-130.185v-150.79zM161.04 606.439h1098.614v106.77c0 48.703-39.336 88.04-88.039 88.04H249.08c-48.703 0-88.04-39.337-88.04-88.04v-106.77z m623.766-210.732H289.353c-11.24 0-20.605 8.43-20.605 20.605 0 12.176 8.43 20.605 20.605 20.605h495.454c11.239 0 20.604-8.43 20.604-20.605s-9.365-20.605-20.604-20.605zM536.61 183.102H289.353c-11.24 0-20.605 8.43-20.605 20.605 0 11.24 8.43 20.605 20.605 20.605h248.195c11.239 0 20.605-8.43 20.605-20.605-0.937-12.175-10.303-20.605-21.542-20.605z m0 0M868.163-62.283H250.016c-73.053 0-131.122 59.005-131.122 131.122V715.083c0 71.18 58.069 130.185 130.186 130.185h922.536c72.117 0 130.186-59.005 130.186-130.185v-378.38c0-8.43-5.62-15.923-13.113-20.605-8.429-2.81-17.795-0.937-23.414 5.62-48.703 54.321-118.947 87.102-192 87.102-142.361 0-257.561-116.137-257.561-257.561 0-65.561 25.288-127.376 68.37-176.079 5.62-5.619 7.493-14.985 4.683-23.414-4.682-9.366-12.175-14.049-20.604-14.049zM249.08 803.122c-48.703 0-88.04-39.337-88.04-88.04v-647.18c0-48.702 39.337-88.039 88.04-88.039h575.063c-33.717 49.64-52.449 108.644-52.449 168.586 0 165.775 134.869 300.644 300.644 300.644 67.434 0 132.995-23.415 186.38-65.561v331.55c0 48.703-39.336 88.04-88.038 88.04h-921.6z m0 0M1093.88-96c-123.63 0-222.908 99.278-222.908 222.907 0 123.63 99.278 222.908 222.908 222.908 123.629 0 222.907-99.278 222.907-222.908 0-122.692-99.278-222.907-222.907-222.907z m0 404.605c-99.278 0-180.761-80.546-180.761-180.761 0-99.278 80.546-180.761 180.76-180.761 99.279 0 180.762 80.546 180.762 180.76 0 98.342-81.483 180.762-180.761 180.762z m0 0"  horiz-adv-x="1398" />

    
    <glyph glyph-name="qitianwuliyou" unicode="&#58939;" d="M514.660538 127.718597c-15.553912 0-28.8566 11.767763-30.493855 27.62866-2.455881 23.637854-3.581493 47.68502-3.581493 71.629859 0 118.393924 29.572899 233.513341 86.05816 336.046368H403.224943c-16.986509 0-30.698511 13.712002-30.698512 30.698511s13.712002 30.698511 30.698512 30.698511h217.754771c11.256121 0 21.693614-6.242031 27.01469-16.167883 5.321075-9.925852 4.809433-22.0006-1.432597-31.414809-68.45768-103.863296-104.681923-224.815429-104.681923-349.860698 0-21.795943 1.125612-43.796542 3.274508-65.387829 1.739582-16.884181-10.539822-31.926451-27.424003-33.666033-1.023284-0.102328-2.046567-0.204657-3.069851-0.204657zM512.102328-92.492056c-64.876187 0-127.705806 12.688718-186.953932 37.759169-57.201559 24.149495-108.570401 58.838813-152.673928 102.94234-44.103528 44.103528-78.690517 95.472369-102.94234 152.673929C44.461677 260.131508 31.772959 322.961127 31.772959 387.837314s12.688718 127.705806 37.759169 186.953932c24.149495 57.201559 58.838813 108.570401 102.94234 152.673928 44.103528 44.103528 95.472369 78.690517 152.673928 102.942341C384.396522 855.477965 447.226142 868.166683 512.102328 868.166683s127.705806-12.688718 186.953933-37.759168c57.201559-24.149495 108.570401-58.838813 152.673928-102.942341 44.103528-44.103528 78.690517-95.472369 102.94234-152.673928 25.070451-59.248126 37.759169-122.180074 37.759169-186.953932 0-84.420905-22.205256-167.511542-64.262217-240.164685-8.493255-14.632957-27.219346-19.647047-41.954631-11.153792-14.632957 8.493255-19.647047 27.321675-11.153793 41.954632 36.633557 63.341261 56.075947 135.789747 56.075947 209.466173 0 56.587589-11.051464 111.435595-32.949735 163.009094-21.079644 49.833916-51.266513 94.653742-89.741981 133.129209s-83.295293 68.662336-133.129209 89.741981C623.537923 795.718197 568.689917 806.769661 512.102328 806.769661S400.666733 795.718197 349.093235 773.819926c-49.833916-21.079644-94.653742-51.266513-133.12921-89.741981s-68.662336-83.295293-89.74198-133.129209C104.221445 499.272909 93.169981 444.424903 93.169981 387.837314c0-56.587589 11.051464-111.435595 32.949735-163.009094 21.079644-49.833916 51.266513-94.653742 89.741981-133.129209 38.475467-38.475467 83.295293-68.662336 133.129209-89.741981 51.675827-21.795943 106.523833-32.949735 163.009094-32.949735 74.802039 0 148.273808 19.954032 212.331368 57.713201 14.632957 8.595583 33.461377 3.78615 42.05696-10.846808 8.595583-14.632957 3.78615-33.461377-10.846807-42.05696-73.47177-43.387229-157.688018-66.308784-243.439193-66.308784z"  horiz-adv-x="1024" />

    
    <glyph glyph-name="duihua" unicode="&#58892;" d="M285.6 340.8c-41.6 0-76 34.4-76 77.6s34.4 77.6 76 77.6 76-34.4 76-77.6-33.6-77.6-76-77.6z m227.2 0c-41.6 0-76 34.4-76 77.6s34.4 77.6 76 77.6 76-34.4 76-77.6-34.4-77.6-76-77.6z m226.4 0c-41.6 0-76 34.4-76 77.6s34.4 77.6 76 77.6 76-34.4 76-77.6-34.4-77.6-76-77.6z m-432-370.4c-5.6 0-12 1.6-17.6 4-12.8 5.6-21.6 17.6-24 31.2l-20 123.2 42.4 9.6L308.8 16l132.8 77.6L444 48l-115.2-72c-6.4-3.2-14.4-5.6-21.6-5.6zM512 838.4c-272 0-493.6-177.6-493.6-396.8 0-156 112.8-292 276.8-356l-7.2 52.8C154.4 199.2 64.8 312.8 64.8 441.6 64.8 635.2 265.6 792 512 792s447.2-156.8 447.2-350.4c0-193.6-200.8-350.4-447.2-350.4-13.6 0-57.6 2.4-70.4 3.2l-40.8-39.2c36-6.4 73.6-10.4 111.2-10.4 272 0 493.6 177.6 493.6 396.8S784 838.4 512 838.4z"  horiz-adv-x="1024" />

    
    <glyph glyph-name="shoujidaoshouji" unicode="&#58629;" d="M508.8-80H243.2c-36.8 0-67.2 30.4-67.2 67.2V524.8c0 36.8 30.4 67.2 67.2 67.2h265.6c36.8 0 67.2-30.4 67.2-67.2v-537.6c0-36.8-30.4-67.2-67.2-67.2zM243.2 560C224 560 208 544 208 524.8v-537.6c0-19.2 16-35.2 35.2-35.2h265.6c19.2 0 35.2 16 35.2 35.2V524.8c0 19.2-16 35.2-35.2 35.2H243.2zM560 432H208c-9.6 0-16 6.4-16 16s6.4 16 16 16h352c9.6 0 16-6.4 16-16s-6.4-16-16-16zM560 48H208c-9.6 0-16 6.4-16 16s6.4 16 16 16h352c9.6 0 16-6.4 16-16s-6.4-16-16-16zM400-16h-48c-9.6 0-16 6.4-16 16s6.4 16 16 16h48c9.6 0 16-6.4 16-16s-6.4-16-16-16zM352 528h128v-32h-128zM288 528h32v-32h-32zM624 144c-9.6 0-16 6.4-16 16s6.4 16 16 16h148.8c8 0 16 4.8 20.8 11.2 4.8 6.4 8 14.4 6.4 22.4V752c0 8-3.2 16-8 22.4-6.4 6.4-12.8 9.6-22.4 9.6H505.6c-20.8 0-38.4-16-41.6-36.8V640c0-9.6-6.4-16-16-16s-16 6.4-16 16V748.8v1.6c4.8 36.8 35.2 65.6 73.6 65.6h265.6c17.6 0 33.6-8 44.8-19.2 11.2-12.8 16-28.8 16-46.4v-539.2c1.6-14.4-3.2-32-14.4-44.8-11.2-12.8-25.6-20.8-41.6-22.4H624zM816 656H464c-9.6 0-16 6.4-16 16s6.4 16 16 16h352c9.6 0 16-6.4 16-16s-6.4-16-16-16zM816 272H608c-9.6 0-16 6.4-16 16s6.4 16 16 16h208c9.6 0 16-6.4 16-16s-6.4-16-16-16zM688 208h-48c-9.6 0-16 6.4-16 16s6.4 16 16 16h48c9.6 0 16-6.4 16-16s-6.4-16-16-16zM608 752h128v-32h-128zM544 752h32v-32h-32z"  horiz-adv-x="1024" />

    
    <glyph glyph-name="fangdajing" unicode="&#58935;" d="M921.3 22L738.1 205.2c51.3 62.6 82.1 142.5 82.1 229.6 0 200.1-162.8 363-363 363-200.1 0-363-162.8-363-363s162.8-363 363-363c87 0 167 30.8 229.6 82.1L870-29.3c7.1-7.1 16.4-10.6 25.7-10.6s18.6 3.5 25.7 10.6c14.1 14.2 14.1 37.2-0.1 51.3zM166.8 434.8c0 160.1 130.3 290.4 290.4 290.4s290.4-130.3 290.4-290.4-130.3-290.4-290.4-290.4-290.4 130.3-290.4 290.4z"  horiz-adv-x="1024" />

    
    <glyph glyph-name="arrow-right" unicode="&#58634;" d="M694.475 63.547000000000025l-56.285-58.26-393.996 392.021 393.996 392.021 56.285-58.26-331.786-333.761z"  horiz-adv-x="1024" />

    
    <glyph glyph-name="bofangsanjiaoxing" unicode="&#58654;" d="M803.84 403.968l-590.848 356.864c-17.408 10.752-38.912 10.752-56.832 0s-28.16-30.208-28.16-51.2v-714.24c0-21.504 10.752-40.96 28.16-51.2 8.704-5.12 18.432-8.192 28.16-8.192s19.456 2.56 28.16 8.192L803.84 301.05600000000004c17.92 10.752 28.16 30.208 28.16 51.2 0 22.016-10.24 40.96-28.16 51.712z m-614.4-399.872l-2.56 697.856 578.56-349.696-576-348.16zM167.424 719.8720000000001h57.856v-738.816h-57.856zM204.8 625.152h192v-238.08H204.8zM171.52 425.472h564.736v-98.816h-564.736zM162.304 343.552h280.576v-242.176h-280.576zM208.384 165.88800000000003h143.36v-112.64h-143.36zM192 125.952h97.28v-102.4h-97.28zM163.84 72.19200000000001h94.72v-78.336H163.84zM374.784 343.552h151.04v-202.24h-151.04zM478.72 363.00800000000004h194.56v-104.96h-194.56zM418.304 378.36800000000005h352.256v-84.48h-352.256zM345.6 299.00800000000004H609.28v-91.136h-263.68zM276.48 535.552h288.256v-170.496H276.48zM504.32 411.648H721.92v-57.856h-217.6zM505.344 491.008h102.4v-73.216h-102.4zM565.76 445.952H701.44v-68.096h-135.68zM350.72 606.2080000000001h75.776v-86.016h-75.776zM389.12 567.808h137.216v-84.48H389.12zM195.584 696.832h75.776v-89.6h-75.776zM233.984 670.208h103.936v-83.456h-103.936zM536.064 484.352h106.496v-98.816h-106.496zM602.624 425.472h137.216v-64h-137.216z"  horiz-adv-x="1024" />

    
    <glyph glyph-name="location" unicode="&#58625;" d="M512.103132 575.879021a106.221743 106.221743 0 1 0-75.507022-31.354611A106.221743 106.221743 0 0 0 512.103132 575.879021m0 63.989002a170.850635 170.850635 0 1 1 120.939214-49.911422A169.570855 169.570855 0 0 1 512.103132 639.868023zM805.172761 771.685367a407.609942 407.609942 0 0 1-586.139257 0 431.285873 431.285873 0 0 1 0-599.576948L512.103132-128l293.069629 300.108419a431.285873 431.285873 0 0 1 0 599.576948z m-44.152411-557.344207l-248.917218-255.956007-248.917217 255.956007a365.377201 365.377201 0 0 0 0 508.712565 346.82039 346.82039 0 0 0 497.834435 0 365.377201 365.377201 0 0 0 0-508.712565z"  horiz-adv-x="1024" />

    
    <glyph glyph-name="youjiantou" unicode="&#58653;" d="M500 896c-276.1563 0-500-223.8438-500-500s223.8438-500 500-499.99999999 500 223.8438 499.99999999 499.99999999-223.8438 500-499.99999999 500zM500-10.25c-224.375 0-406.25 181.875-406.25000001 406.25s181.875 406.25 406.25000001 406.25000001 406.25-181.875 406.25-406.25000001-181.875-406.25-406.25-406.25zM794.1875 440.1875l-250.00000001 250c-24.4063 24.4063-63.9688 24.4063-88.37499999 0s-24.4063-63.9688 0-88.375l143.3125-143.3125-349.125 0c-34.5313 0-62.5-27.9688-62.5-62.5s27.9688-62.5 62.5-62.5l349.125 0-143.3125-143.3125c-24.4063-24.4063-24.4063-63.9688 0-88.4063 12.2188-12.1875 28.1875-18.31250001 44.1875-18.31249999s32 6.0938 44.1875 18.31249999l250 250c24.4063 24.4063 24.4063 63.9688 0 88.375z"  horiz-adv-x="1000" />

    
    <glyph glyph-name="triangle" unicode="&#58628;" d="M803.84 403.968L213.056 760.96C195.392 771.712 174.208 771.712 156.352 761.024 138.624 750.2719999999999 128 731.072 128 709.6320000000001l0-714.176c0-21.44 10.624-40.704 28.352-51.392C165.248-61.31200000000001 174.976-64 184.704-64c9.728 0 19.52 2.688 28.352 8.064l590.72 356.992c17.728 10.752 28.288 30.016 28.288 51.456C832.128 374.01599999999996 821.568 393.28 803.84 403.968zM189.568 4.288000000000011L187.136 702.208l578.624-349.696L189.568 4.288000000000011z"  horiz-adv-x="1024" />

    
    <glyph glyph-name="top" unicode="&#58663;" d="M186.181818 709.818182l651.636364 0 0-46.545455-651.636364 0 0 46.545455ZM509.207273 554.216727l-279.738182-279.738182a23.272727 23.272727 0 1 0-32.907636 32.907637l296.168727 296.215273a23.179636 23.179636 0 0 0 32.954182 0l296.215272-296.215273a23.272727 23.272727 0 1 0-32.907636-32.907637l-279.784727 279.738182zM488.727273 570.181818l46.545454 0 0-605.090909-46.545454 0 0 605.090909Z"  horiz-adv-x="1024" />

    
    <glyph glyph-name="tianwuliyoutuihuo" unicode="&#58893;" d="M188.783 701.437c67.981 67.991 155.676 112.102 252.56 126.017 118.413 17.023 236.41-13.172 332.18-84.883C869.31 670.805 931.43 566.044 948.45 447.63c35.117-244.617-135.326-472.08-379.79-507.219-102.508-14.704-207.619 6.783-295.991 60.432-15.098 9.189-19.912 28.882-10.744 43.98 9.255 14.965 28.86 19.91 43.979 10.721 75.681-45.991 165.783-64.37 253.675-51.768 209.5 30.063 355.57 225.056 325.506 434.754-14.572 101.522-67.827 191.273-149.942 252.757-82.092 61.512-183.22 87.33-284.722 72.715-209.717-30.053-355.744-225.09-325.616-434.698 7.899-54.876 26.934-106.162 56.712-152.372 9.54-14.922 5.186-34.788-9.584-44.24-14.855-9.583-34.678-5.295-44.24 9.539-34.746 54.088-56.997 113.907-66.252 177.97-17 118.415 13.15 236.48 84.96 332.269a448.524 448.524 0 0 0 42.381 48.966zM332.71 198.336V539.67h-53.542c-13.386 0-20.079 7.426-20.079 22.31 0 11.886 6.694 18.579 20.079 20.078h89.237c10.388 0 15.617-4.462 15.617-13.386v-370.336c-1.5-14.884-10.423-22.309-26.772-22.309-16.383 0.002-24.54 7.426-24.54 22.31zM569.189 539.67l-15.616-111.547c14.849 7.425 32.696 11.887 53.542 13.386 62.465-7.46 97.394-49.08 104.853-124.933-4.46-92.235-49.079-139.084-133.856-140.549-62.465 1.465-100.391 23.042-113.777 64.698 0 11.887 5.926 18.579 17.847 20.078 4.462 0 12.619-5.228 24.54-15.617 23.774-17.847 48.313-26.771 73.62-26.771 47.582 2.963 73.622 32.697 78.083 89.237-2.998 55.007-26.771 84.01-71.39 87.007-16.383 0-34.23-3.73-53.541-11.154-7.46-2.998-12.653-4.463-15.618-4.463-11.921 0-17.847 5.194-17.847 15.617 0 4.461 1.465 15.616 4.462 33.464L526.8 568.672c-1.5 8.924 4.46 13.386 17.847 13.386h140.55c13.384-1.5 20.81-8.192 22.308-20.078-1.499-14.884-8.924-22.31-22.309-22.31H569.19z"  horiz-adv-x="1024" />

    
    <glyph glyph-name="erji" unicode="&#58969;" d="M876.51672 477.846538h-6.393784a346.543083 346.543083 0 0 1-692.801998 0H170.500902a106.563064 106.563064 0 0 1-106.42098-106.42098v-108.836409A106.563064 106.563064 0 0 1 170.500902 156.16817h91.360067V469.747745a261.292632 261.292632 0 0 0 522.585264 0v-302.212848a53.991952 53.991952 0 0 0-53.849868-53.991953H541.9087v-85.250451h189.256001a139.242403 139.242403 0 0 1 138.531983 127.875677h6.820036a106.563064 106.563064 0 0 1 106.420979 106.420979v108.836409a106.563064 106.563064 0 0 1-106.420979 106.42098zM149.89871 262.589149v108.836409A21.170529 21.170529 0 0 0 170.500902 392.596087h6.109616v-151.177466H170.500902a21.170529 21.170529 0 0 0-20.602192 21.170528z m747.788539 0a21.170529 21.170529 0 0 0-21.170529-21.170528h-6.2517V392.596087h6.2517a21.170529 21.170529 0 0 0 21.170529-21.170529z"  horiz-adv-x="1032" />

    
    <glyph glyph-name="jiantou-copy" unicode="&#58669;" d="M632.79248047 388.56416016l-352.28496094-352.2216797a48.15 48.15 0 1 1 68.20664063-68.14248046l386.35751953 386.22832031a47.95751953 47.95751953 0 0 1 0 68.33583986L348.71416016 808.92919922a48.15 48.15 0 1 1-68.14248047-68.14335937l352.22167969-352.28583984z"  horiz-adv-x="1024" />

    
    <glyph glyph-name="shouji" unicode="&#58896;" d="M761.503 893.094H242.122c-32.405 0-58.932-26.06-58.932-58.528v-902.302c0-32.157 26.217-58.217 58.932-58.217h519.381c32.345 0 58.591 26.06 58.591 58.217V834.877c0 32.156-26.246 58.217-58.591 58.217M452.879 834.877h98.147c6.78 0 12.316-5.536 12.316-12.253 0-6.749-5.535-12.253-12.316-12.253H452.88c-6.78 0-12.345 5.504-12.345 12.253-0.001 6.717 5.566 12.253 12.345 12.253m48.763-919.47c-29.637 0-53.988 23.946-53.988 53.677 0 29.357 24.04 53.614 53.988 53.614 29.917 0 53.987-23.884 53.987-53.614 0-29.731-24.069-53.677-53.987-53.677m264.715 177.45c0-16.234-13.187-29.108-29.234-29.108H266.504c-16.357 0-29.326 13.186-29.326 29.108V732.5c0 16.233 13.28 29.139 29.326 29.139H736.75c16.421 0 29.358-13.185 29.358-29.139v-639.642h0.249z m0 0"  horiz-adv-x="1024" />

    
    <glyph glyph-name="dianhuaka" unicode="&#58881;" d="M817.528163-117.55102H200.202449a57.887347 57.887347 0 0 0-57.469388 57.887347V657.345306a56.842449 56.842449 0 0 0 16.927347 41.795918l169.900408 170.318368a58.096327 58.096327 0 0 0 41.795919 16.927347h446.171428a58.096327 58.096327 0 0 0 57.887347-58.305306v-887.745306a57.887347 57.887347 0 0 0-57.887347-57.887347zM370.520816 847.098776a20.897959 20.897959 0 0 1-13.583673-5.642449l-170.318367-170.318368a19.017143 19.017143 0 0 1-5.642449-13.583673v-717.217959a19.435102 19.435102 0 0 1 19.226122-19.435103h617.325714a19.644082 19.644082 0 0 1 19.017143 19.435103V827.245714a19.435102 19.435102 0 0 1-19.435102 19.435102z m0 0M682.527347 36.884898H334.367347a58.096327 58.096327 0 0 0-57.887347 57.887347v501.55102A58.096327 58.096327 0 0 0 334.367347 654.210612h348.16a58.096327 58.096327 0 0 0 57.887347-57.887347v-501.55102a58.096327 58.096327 0 0 0-57.887347-57.887347zM334.367347 615.549388a19.435102 19.435102 0 0 1-19.226123-19.435102v-501.551021a19.226122 19.226122 0 0 1 19.226123-19.226122h348.16a19.226122 19.226122 0 0 1 19.226122 19.226122v501.551021a19.226122 19.226122 0 0 1-19.226122 19.226122z m0 0M412.525714 634.77551h38.452245v-192.888163h-38.452245z m135.000817 0H585.142857v-192.888163h-37.616326z m0-386.612245H585.142857v-192.888163h-37.616326z m0 0M296.75102 461.113469h424.228572v-38.452245H296.75102z m154.226939-405.002449h-38.452245V269.061224H720.979592v-38.452244H450.977959z m0 0"  horiz-adv-x="1024" />

    
    <glyph glyph-name="wode" unicode="&#58882;" d="M1016.83-48.128c0-21.504-17.408-38.912-38.912-38.912-21.504 0-38.912 17.408-38.912 38.912v20.992c0 97.28-198.144 235.008-425.472 235.008-180.736 0-428.544-115.712-428.544-230.912v-25.088c0-21.504-17.408-38.912-38.912-38.912S7.166-69.632 7.166-48.128v48.64c0 58.368 86.528 207.872 322.56 263.168-84.992 58.368-141.312 156.16-141.312 267.264 0 178.688 144.896 323.584 323.584 323.584 178.688 0 323.584-144.896 323.584-323.584 0-109.056-54.272-205.312-137.216-264.192 238.592-53.248 318.464-210.432 318.464-266.24v-48.64zM757.76 531.456c0 135.68-110.08 245.76-245.76 245.76s-245.76-110.08-245.76-245.76S376.32 285.696 512 285.696s245.76 110.08 245.76 245.76z"  horiz-adv-x="1024" />

    
    <glyph glyph-name="weixiu" unicode="&#58914;" d="M356.2 826.2c76.5 0 148.5-29.8 202.5-83.9 78.2-78.2 104.1-192.1 67.4-297.1l-14.4-41.4 31-31 287.6-287.6c31.8-31.8 31.8-83.5 0-115.3l-4.3-4.3c-15.4-15.4-35.8-23.9-57.6-23.9-21.7 0-42.2 8.5-57.6 23.8L523.1 253.3l-31 31-41.4-14.4c-30.6-10.7-62.6-16.1-95.1-16.1-76.4 0-148.1 29.7-202 83.5-74.2 74.3-100.2 181.9-73.4 279L256.5 440c26.6-26.6 62.1-41.3 99.7-41.3s73.1 14.7 99.7 41.3c26.6 26.6 41.3 62.1 41.3 99.7 0 37.7-14.7 73.1-41.3 99.7L279.6 815.9c24.8 6.8 50.5 10.3 76.6 10.3m0 69.8c-68.5 0-137.1-19.6-196.4-59l246.8-246.8c27.8-27.8 27.8-72.9 0-100.8-13.9-13.9-32.1-20.9-50.4-20.9-18.2 0-36.5 7-50.4 20.9L59 736.3C-32.7 597.9-17.4 409.7 104.3 288c69.4-69.4 160.3-104 251.3-104 40 0 79.9 6.7 118.1 20l287.7-287.7c29.5-29.5 68.2-44.3 106.9-44.3s77.4 14.8 107 44.3l4.3 4.3c59.1 59.1 59 154.9 0 214L692.1 422.2c43.6 125.1 15.9 269.6-84 369.4C538.6 861.2 447.4 896 356.2 896zM856.1 39.9m-34.9 0a34.9 34.9 0 1 1 69.8 0 34.9 34.9 0 1 1-69.8 0Z"  horiz-adv-x="1024" />

    


  </font>
</defs>
</svg>
